├óΓÇôΓÇ£├óΓÇôΓÇ£├óΓÇôΓÇ£├óΓÇôΓÇ£├óΓÇôΓÇ£├óΓÇôΓÇÖ├óΓÇôΓÇÖ├óΓÇôΓÇ£├óΓÇôΓÇ£├óΓÇôΓÇ£├óΓÇôΓÇ£├óΓÇôΓÇ£├óΓÇôΓÇ£├óΓÇôΓÇ£ 10 THINGS I HATE ABOUT YOU ├óΓÇôΓÇ£├óΓÇôΓÇ£├óΓÇôΓÇ£├óΓÇôΓÇ£├óΓÇôΓÇ£├óΓÇôΓÇ£├óΓÇôΓÇ£├óΓÇôΓÇ£├óΓÇôΓÇ£├óΓÇôΓÇ£├óΓÇôΓÇ£├óΓÇôΓÇ£├óΓÇôΓÇ£├óΓÇôΓÇ£├óΓÇôΓÇ£├óΓÇôΓÇ£├óΓÇôΓÇ£├óΓÇôΓÇ£├óΓÇôΓÇ£├óΓÇôΓÇ£├óΓÇôΓÇ£├óΓÇôΓÇ£├óΓÇôΓÇ£├óΓÇôΓÇ£├óΓÇôΓÇ£├óΓÇôΓÇ£├óΓÇôΓÇ£├óΓÇôΓÇ£├óΓÇôΓÇ£├óΓÇôΓÇ£├óΓÇôΓÇ£├óΓÇôΓÇ£├óΓÇôΓÇ£├óΓÇôΓÇ£├óΓÇôΓÇ£├óΓÇôΓÇ£├óΓÇôΓÇ£├óΓÇôΓÇ£├óΓÇôΓÇ£├óΓÇôΓÇ£├óΓÇôΓÇ£


├óΓÇôΓÇ£├óΓÇôΓÇ£├óΓÇôΓÇ£├óΓÇôΓÇ£├óΓÇôΓÇ£├óΓÇôΓÇÖ├óΓÇôΓÇÿ  F i L E   i N F O  ├óΓÇôΓÇÿ├óΓÇôΓÇÖ├óΓÇôΓÇ£├óΓÇôΓÇ£├óΓÇôΓÇ£├óΓÇôΓÇ£├óΓÇôΓÇ£├óΓÇôΓÇ£├óΓÇôΓÇ£├óΓÇôΓÇ£├óΓÇôΓÇ£├óΓÇôΓÇ£├óΓÇôΓÇ£├óΓÇôΓÇ£├óΓÇôΓÇ£├óΓÇôΓÇ£├óΓÇôΓÇ£├óΓÇôΓÇ£├óΓÇôΓÇ£├óΓÇôΓÇ£├óΓÇôΓÇ£├óΓÇôΓÇ£├óΓÇôΓÇ£├óΓÇôΓÇ£├óΓÇôΓÇ£├óΓÇôΓÇ£├óΓÇôΓÇ£├óΓÇôΓÇ£├óΓÇôΓÇ£├óΓÇôΓÇ£├óΓÇôΓÇ£├óΓÇôΓÇ£├óΓÇôΓÇ£├óΓÇôΓÇ£├óΓÇôΓÇ£├óΓÇôΓÇ£├óΓÇôΓÇ£├óΓÇôΓÇ£├óΓÇôΓÇ£├óΓÇôΓÇ£├óΓÇôΓÇ£├óΓÇôΓÇ£├óΓÇôΓÇ£├óΓÇôΓÇ£├óΓÇôΓÇ£├óΓÇôΓÇ£├óΓÇôΓÇ£├óΓÇôΓÇ£├óΓÇôΓÇ£├óΓÇôΓÇ£├óΓÇôΓÇ£├óΓÇôΓÇ£├óΓÇôΓÇ£├óΓÇôΓÇ£

Format                           : AVI
Format/Info                      : Audio Video Interleave
File size                        : 701 MiB
Duration                         : 1h 37mn
Overall bit rate                 : 1 005 Kbps
Writing application              : Nandub v1.0rc2
Writing library                  : Nandub build 1852/release

Video
ID                               : 0
Format                           : MPEG-4 Visual
Format settings, BVOP            : Yes
Format settings, QPel            : No
Format settings, GMC             : No warppoints
Format settings, Matrix          : Default (H.263)
Codec ID                         : XVID
Codec ID/Hint                    : XviD
Duration                         : 1h 37mn
Bit rate                         : 864 Kbps
Width                            : 512 pixels
Height                           : 272 pixels
Display aspect ratio             : 1.882
Frame rate                       : 23.976 fps
Color space                      : YUV
Chroma subsampling               : 4:2:0
Bit depth                        : 8 bits
Scan type                        : Progressive
Bits/(Pixel*Frame)               : 0.259
Stream size                      : 602 MiB (86%)

Audio
ID                               : 1
Format                           : MPEG Audio
Format version                   : Version 1
Format profile                   : Layer 3
Mode                             : Joint stereo
Codec ID                         : 55
Codec ID/Hint                    : MP3
Duration                         : 1h 37mn
Bit rate mode                    : Variable
Bit rate                         : 128 Kbps
Channel(s)                       : 2 channels
Sampling rate                    : 48.0 KHz
Stream size                      : 89.9 MiB (13%)
Alignment                        : Aligned on interleaves
Interleave, duration             : 24 ms (0.58 video frame)
Interleave, preload duration     : 415 ms
Writing library                  : LAME3.92 
Encoding settings                : -m j -V 4 -q 2 -lowpass 17.5 --abr 128

 ├óΓÇôΓÇÿ├óΓÇôΓÇÖ├óΓÇôΓÇ£├óΓÇôΓÇ£├óΓÇôΓÇ£├óΓÇôΓÇ£├óΓÇôΓÇ£├óΓÇôΓÇ£├óΓÇôΓÇ£├óΓÇôΓÇ£├óΓÇôΓÇ£├óΓÇôΓÇ£├óΓÇôΓÇ£├óΓÇôΓÇ£├óΓÇôΓÇ£├óΓÇôΓÇ£├óΓÇôΓÇ£├óΓÇôΓÇ£ CAST ├óΓÇôΓÇ£├óΓÇôΓÇ£├óΓÇôΓÇ£├óΓÇôΓÇ£├óΓÇôΓÇ£├óΓÇôΓÇ£├óΓÇôΓÇ£├óΓÇôΓÇ£├óΓÇôΓÇ£├óΓÇôΓÇ£├óΓÇôΓÇ£├óΓÇôΓÇ£├óΓÇôΓÇ£├óΓÇôΓÇ£├óΓÇôΓÇ£├óΓÇôΓÇ£├óΓÇôΓÇ£├óΓÇôΓÇ£├óΓÇôΓÇ£├óΓÇôΓÇ£├óΓÇôΓÇ£├óΓÇôΓÇ£├óΓÇôΓÇ£├óΓÇôΓÇ£├óΓÇôΓÇ£├óΓÇôΓÇ£├óΓÇôΓÇ£├óΓÇôΓÇ£├óΓÇôΓÇ£├óΓÇôΓÇ£├óΓÇôΓÇ£├óΓÇôΓÇ£├óΓÇôΓÇ£├óΓÇôΓÇ£├óΓÇôΓÇ£├óΓÇôΓÇ£├óΓÇôΓÇ£├óΓÇôΓÇ£├óΓÇôΓÇ£├óΓÇôΓÇ£├óΓÇôΓÇ£├óΓÇôΓÇ£├óΓÇôΓÇ£├óΓÇôΓÇ£├óΓÇôΓÇ£├óΓÇôΓÇ£├óΓÇôΓÇ£├óΓÇôΓÇ£├óΓÇôΓÇ£├óΓÇôΓÇ£├óΓÇôΓÇ£├óΓÇôΓÇ£├óΓÇôΓÇ£├óΓÇôΓÇ£├óΓÇôΓÇ£├óΓÇôΓÇ£├óΓÇôΓÇ£
 

Heath Ledger ... Patrick Verona

Julia Stiles ... Kat Stratford

Joseph Gordon-Levitt ... Cameron James

Larisa Oleynik ... Bianca Stratford

David Krumholtz ... Michael

Andrew Keegan ... Joey Donner

Susan May Pratt ... Mandella

Gabrielle Union ... Chastity

Larry Miller ... Walter Stratford

Daryl Mitchell ... Mr. Morgan (as Daryl 'Chill' Mitchell)

Allison Janney ... Ms. Perky
David Leisure ... Mr. Chapin
Greg Jackson ... Scruvy
Kyle Cease ... Bogie Lowenstien

Terence Heuston ... Derek
    
       Director         :      Gil Junger

├óΓÇôΓÇÿ├óΓÇôΓÇÖ├óΓÇôΓÇ£├óΓÇôΓÇ£├óΓÇôΓÇ£├óΓÇôΓÇ£├óΓÇôΓÇ£├óΓÇôΓÇ£├óΓÇôΓÇ£├óΓÇôΓÇ£├óΓÇôΓÇ£├óΓÇôΓÇ£├óΓÇôΓÇ£├óΓÇôΓÇ£├óΓÇôΓÇ£├óΓÇôΓÇ£├óΓÇôΓÇ£├óΓÇôΓÇ£├óΓÇôΓÇ£├óΓÇôΓÇ£├óΓÇôΓÇ£├óΓÇôΓÇ£├óΓÇôΓÇ£├óΓÇôΓÇ£├óΓÇôΓÇ£├óΓÇôΓÇ£├óΓÇôΓÇ£├óΓÇôΓÇ£├óΓÇôΓÇ£├óΓÇôΓÇ£ SCREENSHOT ├óΓÇôΓÇ£├óΓÇôΓÇ£├óΓÇôΓÇ£├óΓÇôΓÇ£├óΓÇôΓÇ£├óΓÇôΓÇ£├óΓÇôΓÇ£├óΓÇôΓÇ£├óΓÇôΓÇ£├óΓÇôΓÇ£├óΓÇôΓÇ£├óΓÇôΓÇ£├óΓÇôΓÇ£├óΓÇôΓÇ£├óΓÇôΓÇ£├óΓÇôΓÇ£├óΓÇôΓÇ£├óΓÇôΓÇ£├óΓÇôΓÇ£├óΓÇôΓÇ£├óΓÇôΓÇ£├óΓÇôΓÇ£├óΓÇôΓÇ£├óΓÇôΓÇ£├óΓÇôΓÇ£├óΓÇôΓÇ£├óΓÇôΓÇ£├óΓÇôΓÇ£├óΓÇôΓÇ£├óΓÇôΓÇ£├óΓÇôΓÇ£├óΓÇôΓÇ£├óΓÇôΓÇ£├óΓÇôΓÇ£├óΓÇôΓÇ£├óΓÇôΓÇ£├óΓÇôΓÇÿ├óΓÇôΓÇ£

          http://img97.imageshack.us/img97/607/screenshotsz.jpg

├óΓÇôΓÇÿ├óΓÇôΓÇÖ├óΓÇôΓÇ£├óΓÇôΓÇ£├óΓÇôΓÇ£├óΓÇôΓÇ£├óΓÇôΓÇ£├óΓÇôΓÇ£├óΓÇôΓÇ£├óΓÇôΓÇ£├óΓÇôΓÇ£├óΓÇôΓÇ£├óΓÇôΓÇ£├óΓÇôΓÇ£├óΓÇôΓÇ£├óΓÇôΓÇ£├óΓÇôΓÇ£├óΓÇôΓÇ£├óΓÇôΓÇ£├óΓÇôΓÇ£├óΓÇôΓÇ£├óΓÇôΓÇ£├óΓÇôΓÇ£├óΓÇôΓÇ£├óΓÇôΓÇ£├óΓÇôΓÇ£├óΓÇôΓÇ£├óΓÇôΓÇ£├óΓÇôΓÇ£├óΓÇôΓÇ£├óΓÇôΓÇ£├óΓÇôΓÇ£├óΓÇôΓÇ£├óΓÇôΓÇ£├óΓÇôΓÇ£├óΓÇôΓÇ£├óΓÇôΓÇ£├óΓÇôΓÇ£├óΓÇôΓÇ£├óΓÇôΓÇ£├óΓÇôΓÇ£├óΓÇôΓÇ£├óΓÇôΓÇ£├óΓÇôΓÇ£├óΓÇôΓÇ£├óΓÇôΓÇ£├óΓÇôΓÇ£├óΓÇôΓÇ£├óΓÇôΓÇ£├óΓÇôΓÇ£├óΓÇôΓÇ£├óΓÇôΓÇ£├óΓÇôΓÇ£├óΓÇôΓÇÿ├óΓÇôΓÇÖ├óΓÇôΓÇ£├óΓÇôΓÇ£├óΓÇôΓÇ£├óΓÇôΓÇ£├óΓÇôΓÇ£├óΓÇôΓÇ£├óΓÇôΓÇ£├óΓÇôΓÇ£├óΓÇôΓÇ£├óΓÇôΓÇ£├óΓÇôΓÇ£├óΓÇôΓÇ£├óΓÇôΓÇ£├óΓÇôΓÇ£├óΓÇôΓÇ£├óΓÇôΓÇ£├óΓÇôΓÇ£├óΓÇôΓÇ£├óΓÇôΓÇ£├óΓÇôΓÇ£├óΓÇôΓÇ£├óΓÇôΓÇ£├óΓÇôΓÇ£├óΓÇôΓÇ£├óΓÇôΓÇ£├óΓÇôΓÇ£├óΓÇôΓÇ£├óΓÇôΓÇ£

SEED AFTER DOWNLOAD
  http://thepiratebay.org/user/HaUnTiNg.SuMMeR/

├óΓÇôΓÇÿ├óΓÇôΓÇÖ├óΓÇôΓÇ£├óΓÇôΓÇ£├óΓÇôΓÇ£├óΓÇôΓÇ£├óΓÇôΓÇ£├óΓÇôΓÇ£├óΓÇôΓÇ£├óΓÇôΓÇ£├óΓÇôΓÇ£├óΓÇôΓÇ£├óΓÇôΓÇ£├óΓÇôΓÇ£├óΓÇôΓÇ£├óΓÇôΓÇ£├óΓÇôΓÇ£├óΓÇôΓÇ£├óΓÇôΓÇ£├óΓÇôΓÇ£├óΓÇôΓÇ£├óΓÇôΓÇ£├óΓÇôΓÇ£├óΓÇôΓÇ£├óΓÇôΓÇ£├óΓÇôΓÇ£├óΓÇôΓÇ£├óΓÇôΓÇ£├óΓÇôΓÇ£├óΓÇôΓÇ£├óΓÇôΓÇ£├óΓÇôΓÇ£├óΓÇôΓÇ£├óΓÇôΓÇ£├óΓÇôΓÇ£├óΓÇôΓÇ£├óΓÇôΓÇ£├óΓÇôΓÇ£├óΓÇôΓÇ£├óΓÇôΓÇ£├óΓÇôΓÇ£├óΓÇôΓÇ£├óΓÇôΓÇ£├óΓÇôΓÇ£├óΓÇôΓÇ£├óΓÇôΓÇ£├óΓÇôΓÇ£├óΓÇôΓÇ£├óΓÇôΓÇ£├óΓÇôΓÇ£├óΓÇôΓÇ£├óΓÇôΓÇ£├óΓÇôΓÇ£├óΓÇôΓÇÿ├óΓÇôΓÇÖ├óΓÇôΓÇ£├óΓÇôΓÇ£├óΓÇôΓÇ£├óΓÇôΓÇ£├óΓÇôΓÇ£├óΓÇôΓÇ£├óΓÇôΓÇ£├óΓÇôΓÇ£├óΓÇôΓÇ£├óΓÇôΓÇ£├óΓÇôΓÇ£├óΓÇôΓÇ£├óΓÇôΓÇ£├óΓÇôΓÇ£├óΓÇôΓÇ£├óΓÇôΓÇ£├óΓÇôΓÇ£├óΓÇôΓÇ£├óΓÇôΓÇ£├óΓÇôΓÇ£├óΓÇôΓÇ£├óΓÇôΓÇ£├óΓÇôΓÇ£├óΓÇôΓÇ£├óΓÇôΓÇ£├óΓÇôΓÇ£├óΓÇôΓÇ£├óΓÇôΓÇ£

